HIERARCHY
ROOT Pelvis
{
	OFFSET 0.000000 0.000000 0.000000
	CHANNELS 6 Xposition Yposition Zposition Xrotation Yrotation Zrotation
	JOINT LeftUpLeg_virtual
	{
		OFFSET 0.000000 0.000000 0.000000
		CHANNELS 3 Xrotation Yrotation Zrotation
		JOINT LeftUpLeg
		{
			OFFSET 18.735201 -5.666702 -4.541200
			CHANNELS 3 Xrotation Yrotation Zrotation
			JOINT LeftLeg
			{
				OFFSET -0.021200 -31.938179 0.493100
				CHANNELS 3 Xrotation Yrotation Zrotation
				JOINT LeftFoot
				{
					OFFSET 0.021200 -31.938179 -4.336299
					CHANNELS 3 Xrotation Yrotation Zrotation
					JOINT LeftToeBase
					{
						OFFSET 0.943001 -26.722000 15.023500
						CHANNELS 3 Xrotation Yrotation Zrotation
						End Site
						{
							OFFSET 0 0 0
						}
					}
				}
			}
		}
	}
	JOINT RightUpLeg_virtual
	{
		OFFSET 0.000000 0.000000 0.000000
		CHANNELS 3 Xrotation Yrotation Zrotation
		JOINT RightUpLeg
		{
			OFFSET -18.735201 -5.666702 -4.541200
			CHANNELS 3 Xrotation Yrotation Zrotation
			JOINT RightLeg
			{
				OFFSET 0.018946 -31.938133 0.493100
				CHANNELS 3 Xrotation Yrotation Zrotation
				JOINT RightFoot
				{
					OFFSET -0.018946 -31.938126 -4.336299
					CHANNELS 3 Xrotation Yrotation Zrotation
					JOINT RightToeBase
					{
						OFFSET -0.943001 -26.722004 15.023500
						CHANNELS 3 Xrotation Yrotation Zrotation
						End Site
						{
							OFFSET 0 0 0
						}
					}
				}
			}
		}
	}
	JOINT Hips_virtual
	{
		OFFSET 0.000000 0.000000 0.000000
		CHANNELS 3 Xrotation Yrotation Zrotation
		JOINT Hips
		{
			OFFSET -0.000000 -0.000000 -0.000000
			CHANNELS 3 Xrotation Yrotation Zrotation
			JOINT Spine
			{
				OFFSET 0.000000 10.199997 -0.299500
				CHANNELS 3 Xrotation Yrotation Zrotation
				JOINT Spine1
				{
					OFFSET 0.000000 11.900002 -1.516600
					CHANNELS 3 Xrotation Yrotation Zrotation
					JOINT Spine2
					{
						OFFSET 0.000000 13.600006 -2.842500
						CHANNELS 3 Xrotation Yrotation Zrotation
						JOINT Neck_virtual
						{
							OFFSET 0.000000 0.000000 0.000000
							CHANNELS 3 Xrotation Yrotation Zrotation
							JOINT Neck
							{
								OFFSET 0.000000 9.624100 -2.890100
								CHANNELS 3 Xrotation Yrotation Zrotation
								JOINT Head
								{
									OFFSET 0.000000 14.068802 -1.351900
									CHANNELS 3 Xrotation Yrotation Zrotation
									End Site
									{
										OFFSET 0 0 0
									}
								}
							}
						}
						JOINT LeftShoulder_virtual
						{
							OFFSET 0.000000 0.000000 0.000000
							CHANNELS 3 Xrotation Yrotation Zrotation
							JOINT LeftShoulder
							{
								OFFSET 15.263000 10.923401 -0.547700
								CHANNELS 3 Xrotation Yrotation Zrotation
								JOINT LeftArm
								{
									OFFSET 25.438599 -2.830597 -13.032500
									CHANNELS 3 Xrotation Yrotation Zrotation
									JOINT LeftForeArm
									{
										OFFSET 29.960503 0.000000 0.000000
										CHANNELS 3 Xrotation Yrotation Zrotation
										JOINT LeftHand
										{
											OFFSET 27.849251 0.000000 0.000000
											CHANNELS 3 Xrotation Yrotation Zrotation
											End Site
											{
												OFFSET 0 0 0
											}
										}
									}
								}
							}
						}
						JOINT RightShoulder_virtual
						{
							OFFSET 0.000000 0.000000 0.000000
							CHANNELS 3 Xrotation Yrotation Zrotation
							JOINT RightShoulder
							{
								OFFSET -15.263000 10.923401 -0.547700
								CHANNELS 3 Xrotation Yrotation Zrotation
								JOINT RightArm
								{
									OFFSET -25.438599 -2.830597 -13.032500
									CHANNELS 3 Xrotation Yrotation Zrotation
									JOINT RightForeArm
									{
										OFFSET -29.960503 0.000000 0.000000
										CHANNELS 3 Xrotation Yrotation Zrotation
										JOINT RightHand
										{
											OFFSET -27.849251 0.000000 0.000000
											CHANNELS 3 Xrotation Yrotation Zrotation
											End Site
											{
												OFFSET 0 0 0
											}
										}
									}
								}
							}
						}
					}
				}
			}
		}
	}
}
MOTION
Frames: 4
Frame Time: 0.03333333
-21.022989 91.628296 -14.478322 0.000000 0.000000 0.000000 -175.491780 -45.668554 -154.201575 -97.650791 -27.941793 5.880526 105.183062 -17.382290 -20.564730 29.224812 -6.836758 -47.641833 0.000000 0.000000 0.000000 23.577413 -32.600571 19.479889 -21.632872 -17.846524 -10.573965 34.053209 14.911278 -4.035405 -18.321185 12.595468 14.001786 0.000000 0.000000 0.000000 -26.811318 -72.007911 -17.390374 -11.890962 -53.422888 -15.238526 17.697304 -1.518453 -0.668831 9.572672 -0.775697 -1.262997 0.000000 0.000000 0.000000 6.476361 4.190341 0.933614 2.418447 6.016405 0.097847 0.000000 0.000000 0.000000 4.663964 -2.356579 1.682588 -0.917205 -9.333359 9.702067 -79.818369 9.371429 -71.115124 -86.930509 -57.378561 -87.068116 0.000000 0.000000 0.000000 4.473460 1.676217 1.475445 2.824191 9.486477 2.941437 22.759280 15.634894 -7.263356 142.675166 70.886271 -145.128283 0.000000 0.000000 0.000000 
-21.674736 92.058739 -14.331662 0.000000 0.000000 0.000000 -176.344706 -44.179600 -153.994811 -99.318368 -28.466820 6.033217 105.805374 -18.489619 -21.096149 28.848718 -7.262200 -49.096940 0.000000 0.000000 0.000000 23.919461 -30.320586 20.028485 -21.494271 -17.494353 -9.928506 33.857531 15.275974 -3.987213 -18.628555 12.843204 14.291659 0.000000 0.000000 0.000000 -28.888978 -72.860872 -19.223639 -13.380217 -54.048817 -16.156917 18.000081 -1.370006 -0.794335 9.769442 -0.702118 -1.338723 0.000000 0.000000 0.000000 6.694566 4.212705 0.860716 2.577533 6.067696 0.052602 0.000000 0.000000 0.000000 4.796068 -2.214063 1.969466 -0.812432 -8.950697 11.422891 -81.668702 9.003105 -70.602805 -90.712651 -57.163424 -90.438275 0.000000 0.000000 0.000000 4.497394 1.778724 1.275277 2.990047 9.817748 1.729780 20.721085 15.581159 -8.319378 146.318785 69.368528 -149.374816 0.000000 0.000000 0.000000 
-22.310783 92.474907 -14.168318 0.000000 0.000000 0.000000 -177.166802 -42.784551 -153.866882 -100.790868 -28.975288 6.179979 106.438963 -19.596899 -21.578970 28.486048 -7.694536 -50.493014 0.000000 0.000000 0.000000 24.153431 -28.069684 20.568981 -21.489696 -17.146486 -9.299882 33.719807 15.621167 -3.950099 -18.892920 13.078202 14.559882 0.000000 0.000000 0.000000 -30.938114 -73.629883 -21.041137 -14.725516 -54.635592 -16.904623 18.261812 -1.223093 -0.923110 9.947754 -0.629546 -1.418678 0.000000 0.000000 0.000000 6.904057 4.235002 0.773438 2.729244 6.109241 0.002640 0.000000 0.000000 0.000000 4.924868 -2.071688 2.235821 -0.709713 -8.594708 13.051295 -83.447549 8.643117 -70.079093 -94.349972 -56.841951 -93.639913 0.000000 0.000000 0.000000 4.524251 1.888862 1.068515 3.170732 10.193706 0.521120 18.684064 15.499116 -9.408432 149.209075 67.849036 -152.876340 0.000000 0.000000 0.000000 
-22.928400 92.869637 -14.007627 0.000000 0.000000 0.000000 -177.932780 -41.501537 -153.777912 -102.093508 -29.454457 6.314897 107.104394 -20.698330 -22.006984 28.149373 -8.134348 -51.823405 0.000000 0.000000 0.000000 24.273229 -25.873393 21.099161 -21.616929 -16.807330 -8.693121 33.626551 15.940126 -3.922048 -19.121360 13.293244 14.803148 0.000000 0.000000 0.000000 -32.918749 -74.315450 -22.804945 -15.910507 -55.172701 -17.477436 18.484765 -1.082785 -1.052791 10.109023 -0.561427 -1.501740 0.000000 0.000000 0.000000 7.106619 4.257512 0.674780 2.874290 6.142599 -0.051087 0.000000 0.000000 0.000000 5.053029 -1.933775 2.481080 -0.605422 -8.274986 14.578214 -85.132093 8.284467 -69.567382 -97.807797 -56.434001 -96.656712 0.000000 0.000000 0.000000 4.554476 2.001296 0.859222 3.366322 10.595304 -0.671170 16.633053 15.375523 -10.524276 151.478528 66.381967 -155.771275 0.000000 0.000000 0.000000 
